Coordinates
version=1
nRows=10
nColumns=40
inDegrees=yes
endheader
time	pelvis_tilt	pelvis_list	pelvis_rotation	pelvis_tx	pelvis_ty	pelvis_tz	hip_flexion_r	hip_adduction_r	hip_rotation_r	knee_angle_r	knee_angle_r_beta	ankle_angle_r	subtalar_angle_r	mtp_angle_r	hip_flexion_l	hip_adduction_l	hip_rotation_l	knee_angle_l	knee_angle_l_beta	ankle_angle_l	subtalar_angle_l	mtp_angle_l	lumbar_extension	lumbar_bending	lumbar_rotation	arm_flex_r	arm_add_r	arm_rot_r	elbow_flex_r	pro_sup_r	wrist_flex_r	wrist_dev_r	arm_flex_l	arm_add_l	arm_rot_l	elbow_flex_l	pro_sup_l	wrist_flex_l	wrist_dev_l
1760624944.80200005	      0.16323389	     -0.78590650	      2.79762408	     -0.03713367	      0.95975533	     -0.00445842	     80.00000000	     -7.00000000	      0.00000000	     80.00000000	      1.39626340	      0.00000000	      0.00000000	      0.00000000	     80.00000000	     -7.00000000	      0.00000000	     80.00000000	      1.39626340	      0.00000000	      0.00000000	      0.00000000	      3.65130225	     -1.13320068	      4.18857597	      3.86101714	    -13.71977542	    -18.30586011	     78.90706211	    151.31568573	     -3.73342615	     22.15073247	      8.51479426	    -11.09440503	     -8.88949666	     65.06836104	    119.82748978	      7.65252043	      2.39129841
1760624944.83599997	      0.15914788	     -0.79488598	      2.78832747	     -0.03730163	      0.95968256	     -0.00527112	     80.00000000	     -7.00000000	      0.00000000	     80.00000000	      1.39626340	      0.00000000	      0.00000000	      0.00000000	     80.00000000	     -7.00000000	      0.00000000	     80.00000000	      1.39626340	      0.00000000	      0.00000000	      0.00000000	      3.67442155	     -1.14968127	      4.14955218	      5.17486067	    -14.08955856	    -16.80650040	     78.46264067	    158.49664692	      0.32046379	     25.50610292	      8.60557515	    -11.08396251	     -8.84251539	     64.93850248	    119.83489302	      7.63659581	      2.40774263
1760624944.86899996	      0.16330602	     -0.79817712	      2.78927340	     -0.03716600	      0.95963437	     -0.00544295	     80.00000000	     -7.00000000	      0.00000000	     80.00000000	      1.39626340	      0.00000000	      0.00000000	      0.00000000	     80.00000000	     -7.00000000	      0.00000000	     80.00000000	      1.39626340	      0.00000000	      0.00000000	      0.00000000	      3.70441055	     -1.15305881	      4.10265110	      6.40442569	    -14.50455892	    -15.59002086	     77.97798050	    160.62403352	      2.77695043	     27.89156412	      8.71717593	    -11.05941951	     -8.82827049	     64.80725987	    119.81520461	      7.66022520	      2.42636258
1760624944.90300012	      0.16960145	     -0.80248730	      2.79421327	     -0.03690164	      0.95922839	     -0.00559032	     80.00000000	     -7.00000000	      0.00000000	     80.00000000	      1.39626340	      0.00000000	      0.00000000	      0.00000000	     80.00000000	     -7.00000000	      0.00000000	     80.00000000	      1.39626340	      0.00000000	      0.00000000	      0.00000000	      3.64919984	     -1.14352013	      4.08011923	      7.22571029	    -14.94220600	    -14.84748155	     77.62056517	    162.33497321	      4.74691652	     29.52067866	      8.93094521	    -10.99327309	     -8.81025808	     64.67553384	    119.80549571	      7.66823499	      2.44343061
1760624944.93600011	      0.15966063	     -0.80528744	      2.81800524	     -0.03724463	      0.95898305	     -0.00647493	     80.00000000	     -7.00000000	      0.00000000	     80.00000000	      1.39626340	      0.00000000	      0.00000000	      0.00000000	     80.00000000	     -7.00000000	      0.00000000	     80.00000000	      1.39626340	      0.00000000	      0.00000000	      0.00000000	      3.56519027	     -1.09779965	      4.10697900	      7.67976518	    -15.25710806	    -14.16430336	     77.11890092	    163.86226665	      6.17224916	     30.89125498	      9.05257595	    -10.91781632	     -8.79144392	     64.65657899	    119.69441668	      7.79135349	      2.45338617
1760624944.96900010	      0.14917867	     -0.80284882	      2.83128938	     -0.03761249	      0.95894791	     -0.00680548	     80.00000000	     -7.00000000	      0.00000000	     80.00000000	      1.39626340	      0.00000000	      0.00000000	      0.00000000	     80.00000000	     -7.00000000	      0.00000000	     80.00000000	      1.39626340	      0.00000000	      0.00000000	      0.00000000	      3.54735052	     -1.02471342	      4.06710021	      8.05763334	    -15.27675600	    -12.94067578	     75.95331756	    163.97122022	      6.21630336	     32.04351044	      9.02062280	    -10.83442175	     -8.88193186	     64.70136015	    119.69695104	      7.92191009	      2.47338869
1760624945.00300002	      0.14835312	     -0.79558828	      2.84447853	     -0.04061380	      0.95959275	     -0.00765000	     80.00000000	     -7.00000000	      0.00000000	     80.00000000	      1.39626340	      0.00000000	      0.00000000	      0.00000000	     80.00000000	     -7.00000000	      0.00000000	     80.00000000	      1.39626340	      0.00000000	      0.00000000	      0.00000000	      3.45643903	     -0.97860914	      4.22536127	      7.15341208	    -15.44816288	    -12.85949233	     75.15961558	    164.19515361	      5.47715177	     32.26195236	      8.84029219	    -10.79920051	     -8.79095069	     64.96727867	    119.70864549	      7.95796221	      2.48428244
1760624945.03600001	      0.15411308	     -0.79672723	      2.85683133	     -0.04217346	      0.95973748	     -0.00758293	     80.00000000	     -7.00000000	      0.00000000	     80.00000000	      1.39626340	      0.00000000	      0.00000000	      0.00000000	     80.00000000	     -7.00000000	      0.00000000	     80.00000000	      1.39626340	      0.00000000	      0.00000000	      0.00000000	      3.36506929	     -0.96843867	      4.18930234	      7.12237729	    -15.46118316	    -12.73829588	     74.43336124	    164.25058171	      6.29259206	     32.35976565	      8.81859791	    -10.84813707	     -8.87208933	     65.03579750	    119.72543451	      7.92041558	      2.47854199
1760624945.06999993	      0.15554089	     -0.80082226	      2.85316454	     -0.04256648	      0.95995680	     -0.00731124	     80.00000000	     -7.00000000	      0.00000000	     80.00000000	      1.39626340	      0.00000000	      0.00000000	      0.00000000	     80.00000000	     -7.00000000	      0.00000000	     80.00000000	      1.39626340	      0.00000000	      0.00000000	      0.00000000	      3.34042933	     -0.95398922	      4.15162271	      7.54646313	    -15.31863388	    -11.84979954	     73.71294281	    163.62543738	      6.65595855	     33.20830213	      8.80340052	    -10.80027182	     -9.00081714	     65.05153170	    119.77914869	      7.89662370	      2.48337395
1760624945.10299993	      0.15685355	     -0.80511439	      2.85036800	     -0.04052399	      0.95970159	     -0.00612570	     80.00000000	     -7.00000000	      0.00000000	     80.00000000	      1.39626340	      0.00000000	      0.00000000	      0.00000000	     80.00000000	     -7.00000000	      0.00000000	     80.00000000	      1.39626340	      0.00000000	      0.00000000	      0.00000000	      3.23078527	     -1.00407297	      4.15241563	      6.91912574	    -15.17197749	    -12.36765350	     72.87137137	    163.65548145	      6.23024434	     32.50263805	      9.05668363	    -10.87869539	     -8.99889777	     64.89736610	    119.74616915	      7.87203049	      2.46696313
